<mxfile host="65bd71144e">
    <diagram id="Nqy45SBpkKTnkUOGcgDk" name="Page-1">
        <mxGraphModel dx="832" dy="563" grid="1" gridSize="10" guides="1" tooltips="1" connect="1" arrows="1" fold="1" page="1" pageScale="1" pageWidth="850" pageHeight="1100" math="0" shadow="0">
            <root>
                <mxCell id="0"/>
                <mxCell id="1" parent="0"/>
                <mxCell id="4" value="" style="shape=stencil(hVXLbhsxDPyavQ6oByXynKb/ESBOvahrB47bJn9fugunpuxlb1otR9QMh9RUHt62T6+bKdPb6Xj4vvk9P5+2U/ky5Tzvt5vjfLLVVB6n8vByOG6+HQ8/98/L9+vTOfK8+nH4dT7hfcFVRtIzKtPHspMETH93vi6A3by/BhRocoCckdI6oAhy94AOzuuArBCfoSS0GgAYVTwgowdXMoqdPaBCWwBI6EOGBtJ1AKP3MUEO4hNq9fGEJuvxBCKvKYMCidLltKsqE6/HN/Ti41MYn8wVnkAsqHlGfDxBA9dZQSsP8RS5NKEMFUYK7lMFJXvCVoAgAduFhgrEbWAAubEQByVjQvYScboccZ+DSe45t44cNFrpUH8lMVWDDGZK9rYQRQpUMheQ56D/aTRF9Y2j7dJK9wE2Szxp/Zxoa73PfrpoBpWAQxoLJwIJrmTjrXnSwpfuuC8ro9wAcuTWMs4vaWhBpW/daoXjqP+t3ZtXqaAE1mgC9e+IFU6DOvQ2jjw1WQMvSYZ686mCAtJGsfsMieKpYdZpN+6LevTqwE9hramcOWzx7/F9mXe75e2+/j8+1ra1PPTl8Q8=);fillColor=none;sketch=1;hachureGap=4;jiggle=2;curveFitting=1;fontFamily=Architects Daughter;fontSource=https%3A%2F%2Ffonts.googleapis.com%2Fcss%3Ffamily%3DArchitects%2BDaughter;fontSize=20;" vertex="1" parent="1">
                    <mxGeometry x="121.1999740600586" y="106.19998741149902" width="41.59998321533203" height="44.33334032694495" as="geometry"/>
                </mxCell>
                <mxCell id="5" value="" style="shape=stencil(jVXLbgIxDPyavVqJncTxmdL/QALKqpRFQF9/X6MVLfGC6S1kZ4jHHtsdzY6bxX7VYTieDsPr6rNfnjYdPXWI/W6zOvQnPXU072i2Hg6rl8PwvluOv/eLM/J8ehs+zv/wNfIIsJ5JGL7HC2So483ziN/2uyt8hCAWH/g+PkAILT5dbm7iE5Q2nligOvgKJbZ4AiIn/gSUGkKF5OhFhEgNPgGm+3gKl+d/A4KMDl5sPMHPD0O2eHLweVLgBDk7+AK5tPEHkOgQGMhUTC4e+ecLaqHslCBrxG2NKUP0NCBUbjVHQE8DQmpDSg9eSBBbW6cHGjQnaAno9E3JIKZuBajcJ7BmSayG5Gio6oxgCey8IGESUoXoiJYC3IrWRLPTnCJWg+aNHXfHMJkvxZ9fwiC5IXCB4hRCtN9bb1TfG3XS0aL2ckZATdYb4nuDxbrvKg+3GQWwnUqaanKalLPNq/hpYnWTEaE94gxKRluI6k9i1kVjCFa0Hv723Lrfbsc1ef3d7kW9GncqzX8A);fillColor=none;sketch=1;hachureGap=4;jiggle=2;curveFitting=1;fontFamily=Architects Daughter;fontSource=https%3A%2F%2Ffonts.googleapis.com%2Fcss%3Ffamily%3DArchitects%2BDaughter;fontSize=20;" vertex="1" parent="1">
                    <mxGeometry x="156.79999389648435" y="104.39998817443848" width="24.399987792968773" height="32.9999942779541" as="geometry"/>
                </mxCell>
                <mxCell id="6" value="" style="shape=stencil(jVfLctswDPwaXTEkQRLkOU3/IzNxak1dO+M4ffx9oTpURFha9yZLuyYBLBbkwA9v+6fX3RDc2+V8+r77NT5f9gN/GUIYj/vdebzo08CPAz+8nM67b+fT+/H5+vv1aUJOTz9OP6d/+H3lBRI/kYL7M7+Qfy++XuGH8biAe6rSwT0Vj+AudnBHOW3DHUVv4C4geCgW7hD84+sn3MN/99GEyhBeuIMzCW/DA4XawYVi3oZH8v3efSAPMplbaDNeyNVtfLG71+17kEtdPvTZYa0GImRiQxASsCNNqPQZiokc0FpIVHptJk8StwmsBc09QbcEiqA7NvrMmqUCqhYpGUIhBmVLgXKfJQnkwArZ3RAiRZBW3YDrm0YSVSBU/cx9DJJhExdvLeUeQZpyFgQPTKj6tuNFDBGsUPVzsVnKQEtVbtqTqYC01kJRLMEDLdVKbAgB+osSTD+Ib1Gtd5y7MTyZ1fK/jFwpgzV0U6YSqi9Bib2JIktr2y3Ch3YWBAf0epvYrAIHUWvpam8DWcWBKqE9bILWoQm8T9UUDcFhgedmKwtnciiGSKFfITE53ELWXQsMupQ2n2YCU0WE2JxuNvxKCbSQ1GZcM0EdHbSQdpj0WWJulVn3PmkuMRNCE8s6Qc8v2a6AxmiKVPoG4nnurU8IHbz9oI4Bnko066V311jxCio1I407U67YQ1vOVEFP61jMfQx3RooKwcygSSzo9OObEBph0i/oOD0q5F5L2oMexJCcVetkPCCtKdkJsXDPdUa1lZucB5RafSt4G0RE+q7kTdQMD9AyZ3EuRKbUEfTh8+rwMh4O15vH8ru9auir6zWFH/8C);fillColor=none;sketch=1;hachureGap=4;jiggle=2;curveFitting=1;fontFamily=Architects Daughter;fontSource=https%3A%2F%2Ffonts.googleapis.com%2Fcss%3Ffamily%3DArchitects%2BDaughter;fontSize=20;" vertex="1" parent="1">
                    <mxGeometry x="108.89998245239258" y="88.89997863769531" width="143.80000686645508" height="83.10000228881836" as="geometry"/>
                </mxCell>
                <mxCell id="7" value="" style="shape=stencil(lVjLbhsxDPwaXwlJ1POcpv8RIE5jNI0Dx339fblYaG3N2lP75jhDLzUcDrna6MPn69PHdhPc5/Gw/779vXs+vm70yyaE3fvr9rA72qeNPm704WV/2H477H++P89/fzxNyOnTj/2v6Rf+zHFeapqCgvs7f1GlzF98neFvu/cBnnSANwkUrh7gNTJ4ywPcOwl6HR8wecOru45XaQ7xsV7HJ4mrfBLJv0he4WMg53VSFAMc4zNKrkBoJAT5JhqhvJkRuvr9IsUTQh0WOEshhGqWNuaTpObr+KiSxwpHaY0UzAgNgPcMXySWAa+SSP5ZpTbAO1Lg3KSNBQ6SSD7FFOcAH0g+1SHeWqgQfOz6PeEz4b/W3k8nvBJ88xIK4Jmem/E58mMFJA3W0hrP9N8K6t+JJ3y2ivxYPxJDadZf4T58yffkb/qpd/Dv3fL8k4CY49oDgNDECWqSxobnhmJ4B4II0pgiqkRQaJVKJN0Wh1pOnLppXA7IOAVURXkAcBptarIqJ3FAqqM212LvkiWg8T5QpDVXOohbED8+oWRRVji/mhyha/FygJMMAZXOAgsAluxU1OwaNqdVJhI3tQA/Fm5SF7e7PNq76ZfJuy6snwY4d4C6kuvUguzUBdU3mQ4LyBdOzYa4DYUCS0XhU0TFFwzwjFebAvCETBejUvuYXAJS30yuDU7URqS0Ft878iyAjvIiCQ5tTUjUlwPuClMTkjrYMpLHYWJN6AityUuBlEx85Akx4fplLeKIvtXmz5iSKZ5VWqOEkVbTL1uxbX6AG5t+G1tRtc+Ps4DEZmJbpZT71no5YLX2Ty1FKm0j7b6A1tvrRrxxHu7BL4TciE/dRm/ER1waDO+IYcTV0pCkEJOMq9ljWwkZhxG3TrM0ptLlpeBsttHXEHTUydDIeRXra35WWJv1dWLBJ/7aJXnkswRaL0U+zcyYOSquI1npeQPONLOyQvE68pMCrVfAfGKWQO8RYKBFR/XjsV8mGyOzwGP+0xbMHKVnu+D1P3hY1mwHZq+9HvVpFuYJ/361lPvuwrfhWyfgNriNTsomZL8sMLfB+ZWAX2mHLsoOX9iVdopDpSk1NocXRNqX5ivwFADO9l0nAV5s6GXG6lUxQpPbh9O14cvu7W2+dTz/P14z2lfzFaU+/gM=);fillColor=none;sketch=1;hachureGap=4;jiggle=2;curveFitting=1;fontFamily=Architects Daughter;fontSource=https%3A%2F%2Ffonts.googleapis.com%2Fcss%3Ffamily%3DArchitects%2BDaughter;fontSize=20;" vertex="1" parent="1">
                    <mxGeometry x="91.5999755859375" y="176.1999797821045" width="410.10001373291016" height="162.2000026702881" as="geometry"/>
                </mxCell>
                <mxCell id="8" value="" style="shape=stencil(lVVbcsIwDDxNfjW25Oc3be/BDKFkSgkT6Ov2VZoxRQ5R6Z8TrZ67lhtanXbrY9ugOZ2H/qX96DbnXUMPDWJ32LVDd+ZTQ48Nrbb90D4P/dthM30f1yNyPL3272OEz8kPM5g0eqH5mv4YMObnx9OE33eHa3wAdALvwaCCt2BJ4G0CE5YdbABrhQMZcF5xIEgyAwUgJUMGRIF3EbKCd8Va8MGAV0Zkwcn40ULMy/jLwAs+WUjKSDlalHjmkJbxoVgLPjt1PhbBSQZyAqck4IpQasgaXUWEgLFOERWSHZc8ayKnZQfPGkj/mlIsOr6ThujBy5IiqSVxPF8JibXuFAc2yyn5BGQVBzZLKXkWi9JDiuBzfReCwkPy4GQPjgetiDshhOq2pZLz9lhz0dqlBwRSSooBgqmnFDTiXOH1Th6YVyczcAjUeiAwXmoJ1R3GWrKVWlPJedshFV4v94EzaOKb8fDHFmBpxGoLBMhRWas0y+Aha3vMzDZf5isiiODD78u17fb76eG7ttcvHf+aXkl6/AY=);fillColor=none;sketch=1;hachureGap=4;jiggle=2;curveFitting=1;fontFamily=Architects Daughter;fontSource=https%3A%2F%2Ffonts.googleapis.com%2Fcss%3Ffamily%3DArchitects%2BDaughter;fontSize=20;" vertex="1" parent="1">
                    <mxGeometry x="133.39997482299805" y="207.19998168945312" width="28.200031280517578" height="31.900001525878906" as="geometry"/>
                </mxCell>
                <mxCell id="9" value="" style="shape=stencil(lZPZDoIwEEW/pq+T7ssz6n+QANKIQAC3v5faRNnayNtwe06baQfEkr5M2xxR3A9dc8kfNhtKxA6IUluXeWeHsULsiFhSNF1+7ppbnfnvNnWkq67N3e3w9B4GjJ1E8csHBgz7BCePV7aO4Rw4CeNr/hts8pyCljN+DHiYF6v9JXAd5iUFMeeJAhFpQInlAe6CaFjQankCZ6AiLRO86kEo4GaXoTCIfYYmICNtbBiT6F/FGBCR19syKEgxNcbiN7qFrSo/+dP15aiPkf9N2PEN);fillColor=none;sketch=1;hachureGap=4;jiggle=2;curveFitting=1;fontFamily=Architects Daughter;fontSource=https%3A%2F%2Ffonts.googleapis.com%2Fcss%3Ffamily%3DArchitects%2BDaughter;fontSize=20;" vertex="1" parent="1">
                    <mxGeometry x="166.39996337890625" y="222.55997924804683" width="0.79998779296875" height="14.50667114257817" as="geometry"/>
                </mxCell>
                <mxCell id="10" value="" style="shape=stencil(lZTbboMwEES/xq8j27u+Pafpf0QKKagUIkJvf19Tqwl2gqW+2cucZccDFrS7tIdzI7S8zNP42nx2x7kV9CS07oa2mbo5rgTtBe1O49S8TOP7cEz782FRLqu38WPp8JU4pWHkQmn5nSqWYfm38pyAvhtWgIQs9A7Bbutd2d94WLetJ0KgDIgVCtsAa6iQAZrhKxOZOwuK/4Z8DFhok3uGpW29vTtTCV/Tu9LBdcLHeoa0/5jHxESLE1LVzNiDOc8gwPkKQHD5CcWUuTISG5DKABczqKRsFEzu2UfTtdACyGVAYHDFg/Wlh2ChKh58/C7zL1XJenCxoff5KwjWbAOrhlfbCsv2RsTF7ec+dX2f7ob18/IyiKV0kdD+Bw==);fillColor=none;sketch=1;hachureGap=4;jiggle=2;curveFitting=1;fontFamily=Architects Daughter;fontSource=https%3A%2F%2Ffonts.googleapis.com%2Fcss%3Ffamily%3DArchitects%2BDaughter;fontSize=20;" vertex="1" parent="1">
                    <mxGeometry x="164.79999796549475" y="217.99998092651367" width="6.399953206380246" height="24.13333511352539" as="geometry"/>
                </mxCell>
                <mxCell id="11" value="" style="shape=stencil(jZLdDoIwDIWfZrdN17KxXSu+BwkgiwgG8O/tBWeUQSDedW2/dWengnddmV5yQdj1bXPK7y7rS8F7QeTqMm9dP0SCE8G7omnzY9tc68yfL+nYOUbn5jbe8PCcBLIjRPj8JBAB8Z06eKBy9QT4Vv8FFEgdADYCpdb7pQUVBYCRYGgdoBhs+KSYIOZ1IFpo0Ai0ASgGDDVE8eYEbUGbAOBtDcYAz3yQwHrjl3AhYm7DEPxcL1xV+aWZ1udbMqT8hnHyAg==);fillColor=none;sketch=1;hachureGap=4;jiggle=2;curveFitting=1;fontFamily=Architects Daughter;fontSource=https%3A%2F%2Ffonts.googleapis.com%2Fcss%3Ffamily%3DArchitects%2BDaughter;fontSize=20;" vertex="1" parent="1">
                    <mxGeometry x="166.93328857421875" y="222.39999389648438" width="20.66668701171875" height="8.79998779296875" as="geometry"/>
                </mxCell>
                <mxCell id="12" value="" style="shape=stencil(lVfbchoxDP2afdXYkizbz2n6H5kJKTulkCGkl7+v6M7SSGEF+2ZsHXuPdHRhoIe37dPrZsD0djoevm9+jc+n7UBfBsRxv90cx5OuBnoc6OHlcNx8Ox7e98/T79ens+V59ePw83zD7wmXIKUzCNOfaYMK1Pxv5+tkvxv3kT0jNFm2zyDF3s+AfdmeoVRjry9y8D0Fmv2eXCC3ZfsKlYx9g07L5h1EjHkBitgqXfc5UAO2mSDzmvsJOtr7BXoEYEjO/wSJwxc8YwQJHKoAtBGrGThwaVbBdBuCCiWFLyRLuhcoMYdig5zTRbdLbpK+6gkBdiTivMltdsrFTQw5AJx1b1+QOHMQ5+NL5GJtI0Fz4quzHK8DGJoNtaSQtKpZ7AsikGoAEMhWfRWBMAS4/K9lltd1QJ3z5V5Ah5LX6JsykAXcCJxmJNoc1cBFOaolml3gGDioAlRBrPhKXGeoQ7MpVy4718t2htYs6Qa1BAD1iQtcDesMi+8kjUJ5c58p3gnQQpecNNrcja4D2EvjBukiXho3Mk6P2WYcN8CoHTbINnAamahBKIDaSoAjzTVMUVVOLmtIa1FxM4DUcMYQ9PK+oSXR4u6qdywNUS25sSEu95W8vFvcd+vnQibh6NCSd+sN8TX0o4/otBJwaDy3wDurhvqku0jHbVcbPzl589wxrgP6p3FG9Rt4qWdAy0HLMwZe6uj7gzaxiIMOCuJGsrjcf5hFZoT3ki7+z+sv4243jfsfz/18r1vTfwN6/As=);fillColor=none;sketch=1;hachureGap=4;jiggle=2;curveFitting=1;fontFamily=Architects Daughter;fontSource=https%3A%2F%2Ffonts.googleapis.com%2Fcss%3Ffamily%3DArchitects%2BDaughter;fontSize=20;" vertex="1" parent="1">
                    <mxGeometry x="188.79998779296875" y="223.19998168945312" width="77.60000610351562" height="11.200000762939453" as="geometry"/>
                </mxCell>
                <mxCell id="13" value="" style="shape=stencil(lVlJctswEHyNrigAg/XsOP9wleVYFcdy2c72+zSiAkUMxaZ00zJNYLaeBriTu4/nh7f9ztuPz/fj9/3vw+Pn806+7Lw/vD7v3w+f+LST+53cPR3f99/ejz9fH0/f3x6aZfv04/irPeHPCZdNtQ3k7d/TD95E//+Hryfzl8MrM7cmUPNclLm1zNzJYJ6NuHXzZGIazJ3QzUdT3OirM5U8P5jqB3txpuR1ezE1DvYhmBDW7X1fvdvHYhIJD1Yf/c3e5Lhub03Ng32JRkh8rJExuTWYnJi9VfbVZOIv7Mf9OMvrwXb3pgWmFF4XoJJpeYrJqt7w/MoKzo/PT+gWWbevxo0Oh9L75/L+fa+XqeLQEszhaPJYomiZRErUFRPGjkQVBuLCucFnTSOFAJwJY5AQZk+S0J5XtQ+OlDW25FRfetrHcFrlTdBoxAeEVXeymMASh0oafQjJFJ5pP/qA0mBhdU4nbhtQot5SJN0JH1SU4HQliUOUoipvazxJXCu+kfAkUUJCaXjVDzzTraPHLYk1ha0QNWUA4AkF+Kz7AUOBkbYvuh8EU4GtUI29qVoBiKo0pA/Sy7SHBhqJO2QTyZYAUJMwOkrcSJMdExc9HeUi/e/ZCmyWI4iK+dAPjCoFmQ43RSn1mFxJxg2gytubRPoBAK8ESe31uwZwow9NkJGevghg3NoaMt0I0KKKTyAEUak2dIhntTSJoisBYCGnVpi8ugxwuoE2RlbwfRpMgEnbrAEUGbeZRBKH2lTayiEPpEUvAjITt6JLw1XKfG0EqlrakM9BDxQoas+iFDUJIHGOZRodp/LAiw88p0jgTM+XAbW3/KxF2YyLtrfLbKBEskJcqHSwBuOlRoxqPmDqkSgBoMQJmtayLYG9FZEVSjMAqBmHlrIMIPqkhw6xpPji8mwFbiXFFxeHN2yJKYEIzXebD1lnGsSTyZzG6S7UmwC1H7+u3FKC2Cm3hDW5RZT4UEyiB/sWIGgy3shDip3cZ8XnSLWmpNXMhkgEQIlE0Aw99uVOjDO6F5aHrKWDC/wmI2vpUPvAuHJHmWpK2CtNmenJHiGqygFLTxttQ057HAkTA5DU5Q0fPwkyYKSMJvZZEqom1g0pk51uNwyHTEo1T7x7pRzLsY/kKydiXpw2NqKUSz/jXXknlhenjUJPiVhAX1p1HbFmL6MHYgrhC3isRnqgd2459ced92+Zv6nX8SxAnrQCAFFuSkHuKZ0lmd0SIUTpJgld7EJ+ckVcvD54byjiEvR8bpeVDBB1mhGlSJqtLI5jDpxDogSAGlUumkQyDUCqegV2idN8qNoHdt0IgB235Cev1sKalDjE9CS0ugRgegrzISx0UqXTc5kHCKHAEpe1IoZMSczpxfkNqoMRd7X61gcATzJdnXYaUkvYvax0CTIBpCuny4DYa3N+k0tIoBZNqxuJm12Fzy6WRubDh/NrnKfDy8vpLdD8f/3aBz+dXhnJ/T8=);fillColor=none;sketch=1;hachureGap=4;jiggle=2;curveFitting=1;fontFamily=Architects Daughter;fontSource=https%3A%2F%2Ffonts.googleapis.com%2Fcss%3Ffamily%3DArchitects%2BDaughter;fontSize=20;" vertex="1" parent="1">
                    <mxGeometry x="270.19998931884766" y="215.03997802734375" width="134.1999740600586" height="38.160003662109375" as="geometry"/>
                </mxCell>
            </root>
        </mxGraphModel>
    </diagram>
</mxfile>